<svg xmlns="http://www.w3.org/2000/svg" width="80" height="80" fill="none" viewBox="0 0 80 80">
  <defs>
    <radialGradient id="paint0_radial_26324_59592" cx="0" cy="0" r="1" gradientTransform="translate(40.62 55.08) rotate(90) scale(10.12 36.58)" gradientUnits="userSpaceOnUse">
      <stop stop-color="#B1A498" offset="0"/>
      <stop stop-color="#B1A498" stop-opacity="0" offset="1"/>
    </radialGradient>
    <linearGradient id="paint1_linear_26324_59592" x1="5.921" x2="73.83" y1="52.93" y2="52.93" gradientUnits="userSpaceOnUse">
      <stop stop-color="#2F2C2C" offset=".5769"/>
      <stop stop-color="#222020" offset=".6731"/>
    </linearGradient>
    <linearGradient id="paint2_linear_26324_59592" x1="39.49" x2="40.45" y1="38.29" y2="57.66" gradientUnits="userSpaceOnUse">
      <stop stop-color="#262424" offset="0"/>
      <stop stop-color="#464343" offset=".6282"/>
      <stop stop-color="#504D4D" offset="1"/>
    </linearGradient>
    <linearGradient id="paint3_linear_26324_59592" x1="28.36" x2="23.29" y1="30.37" y2="48" gradientUnits="userSpaceOnUse">
      <stop stop-color="#fff" offset="0"/>
      <stop stop-color="#E8E2DC" offset=".5727"/>
      <stop stop-color="#D0C7BF" offset=".7873"/>
      <stop stop-color="#A59B92" offset="1"/>
    </linearGradient>
    <linearGradient id="paint4_linear_26324_59592" x1="52.27" x2="44.43" y1="34.02" y2="53.78" gradientUnits="userSpaceOnUse">
      <stop stop-color="#C8BEB5" offset="0"/>
      <stop stop-color="#BDB2A9" offset=".4919"/>
      <stop stop-color="#C6BDB5" offset=".8244"/>
      <stop stop-color="#B0A69E" offset="1"/>
    </linearGradient>
    <linearGradient id="paint5_linear_26324_59592" x1="32.01" x2="22.19" y1="13.57" y2="33.62" gradientUnits="userSpaceOnUse">
      <stop stop-color="#fff" offset="0"/>
      <stop stop-color="#fff" offset=".3453"/>
      <stop stop-color="#DED5CD" offset=".6842"/>
      <stop stop-color="#B6ACA2" offset="1"/>
    </linearGradient>
    <linearGradient id="paint6_linear_26324_59592" x1="30.37" x2="28.52" y1="18.4" y2="35.16" gradientUnits="userSpaceOnUse">
      <stop stop-color="#FF7726" offset="0"/>
      <stop stop-color="#FF833A" offset=".2673"/>
      <stop stop-color="#F8620A" offset=".5484"/>
      <stop stop-color="#DA5107" offset=".8322"/>
      <stop stop-color="#CC4704" offset="1"/>
    </linearGradient>
    <linearGradient id="paint7_linear_26324_59592" x1="36.68" x2="37.46" y1="18.56" y2="26.7" gradientUnits="userSpaceOnUse">
      <stop stop-color="#F35D08" offset="0"/>
      <stop stop-color="#FF8034" offset=".3665"/>
      <stop stop-color="#FF8037" offset=".6741"/>
      <stop stop-color="#E95A0C" offset="1"/>
    </linearGradient>
    <linearGradient id="paint8_linear_26324_59592" x1="28.68" x2="35.11" y1="12.37" y2="17.32" gradientUnits="userSpaceOnUse">
      <stop stop-color="#FF9A5B" offset="0"/>
      <stop stop-color="#FF6D18" offset=".4556"/>
      <stop stop-color="#D54D04" offset=".8697"/>
    </linearGradient>
    <linearGradient id="paint9_linear_26324_59592" x1="45.36" x2="36.44" y1="14.69" y2="18.34" gradientUnits="userSpaceOnUse">
      <stop stop-color="#E75402" offset="0"/>
      <stop stop-color="#FF7B30" offset=".3262"/>
      <stop stop-color="#FA6C21" offset=".6568"/>
      <stop stop-color="#D74C03" offset="1"/>
    </linearGradient>
    <linearGradient id="paint10_linear_26324_59592" x1="35.46" x2="36.57" y1="15.95" y2="18.54" gradientUnits="userSpaceOnUse">
      <stop stop-color="#FF8339" offset="0"/>
      <stop stop-color="#EE5D11" offset=".524"/>
      <stop stop-color="#A73603" offset="1"/>
    </linearGradient>
    <linearGradient id="paint11_linear_26324_59592" x1="58.13" x2="65.94" y1="41.65" y2="50.45" gradientUnits="userSpaceOnUse">
      <stop stop-color="#635F5F" offset="0"/>
      <stop stop-color="#434040" offset=".3547"/>
      <stop stop-color="#2B2929" offset=".6509"/>
      <stop stop-color="#201E1E" offset=".8828"/>
    </linearGradient>
    <radialGradient id="paint12_radial_26324_59592" cx="0" cy="0" r="1" gradientTransform="translate(58.05 45.41) rotate(-36.63) scale(3.364 1.534)" gradientUnits="userSpaceOnUse">
      <stop stop-color="#BDB7B5" offset="0"/>
      <stop stop-color="#BDB7B5" stop-opacity="0" offset="1"/>
    </radialGradient>
  </defs>
  
  <ellipse cx="40.62" cy="55.08" rx="36.58" ry="10.12" fill="url(#paint0_radial_26324_59592)"/>
  <path d="m73.67 43.78c-0.13-3.56-8.23-6.62-15.58-8.24l-47.64 3.73c-3 1.14-4.36 2.34-4.48 4.09-0.1 1.79-0.08 4.91 0.53 6.53 0.65 1.73 3.81 3.09 9.8 5.17 7.68 2.66 20.35 6.63 27.08 8.32 5.25 1.34 9.11 0.74 13.45-1.25 4.65-2.27 12.98-6.87 15.64-9.39 1.41-1.35 1.4-4.71 1.2-8.96z" fill="url(#paint1_linear_26324_59592)"/>
  <path d="m73.67 44.23c0.1-1.86-1.62-3.36-5.15-4.95-2.93-1.32-6.9-2.79-10.1-3.7l-48.04 3.74c-2.75 0.98-4.15 2.22-4.15 3.82 0 1.37 2.43 2.46 6.63 3.97 8.71 3.13 21.47 7.26 29.79 9.53 4.93 1.36 8.88 1.21 13.65-0.52 9.52-3.61 17.24-8.9 17.37-11.89z" fill="url(#paint2_linear_26324_59592)"/>
  <path d="m69.79 42.69c-2.25-2.33-7.41-4.51-11.27-5.48l-47.35 3.55c-1.76 0.55-2.42 1.33-2.38 2.1 0.03 0.78 0.84 1.52 2.86 2.22 9.38 3.23 22 7.24 30.46 9.81 4.11 1.27 7.41 1.24 10.98 0.2 7.93-2.13 13.15-5.24 16.21-8.16 1.5-1.42 1.53-3.17 0.49-4.24z" fill="#282626"/>
  <path d="m59.73 37.55c-0.64-0.17-1.03-0.3-1.62-0.43l1.47 4.04 6.03-0.1c-1.47-1.51-3.62-2.78-5.88-3.51z" fill="#171616"/>
  <path d="m12.44 43.72c-0.15 0.66 0.21 1.44 1.43 1.84 8.83 2.96 19.83 6.57 28.16 9.08 2.85 0.87 5.31 0.91 7.58 0.24 2.04-0.6 3.64-1.34 5.05-2.23l-0.89-1.39c-2.62 1.44-6.46 2.92-10.32 1.83-10.06-2.89-21.03-6.39-31.01-9.37z" fill="#1D1B1B"/>
  <path d="m15.75 30.37c-3.64 0.78-5.42 4.86-5.42 8.62 0 3 1.09 4.92 3.5 5.68 10.4 3.43 21.38 6.89 30.12 9.44 1.75 0.49 3.36 0.21 5.05-0.58 1.86-0.88 3.85-2.03 5.41-2.97 1.93-2.07 4.07-5.23 5.42-8.44 0.5-4.44-0.63-7.31-4.15-8.19l-39.93-3.56z" fill="url(#paint3_linear_26324_59592)"/>
  <path d="m32.64 38.46c1.95 1.79 3.74 3.75 4.92 5.44 1.2 1.72 3.28 2.05 3.8 0.51 0.27-0.83 0.75-1.9 1.02-2.83 0.13-0.48-0.21-0.97-1.1-1.22-2.96-0.83-5.87-1.46-8.64-1.9z" fill="#FEFBF9" opacity=".3"/>
  <path d="m55.74 33.96c-7.16 2.08-11.56 8-12.7 11.59-1.51 4.75-0.92 7.66 1.48 8.56 1.47 0.42 3.13 0.1 4.66-0.64 1.94-0.94 3.72-1.94 5.31-2.88 2.02-2.22 4.07-5.17 5.43-8.4 0.34-4.23-0.69-7.19-4.18-8.23z" fill="url(#paint4_linear_26324_59592)"/>
  <path d="m48.11 39.52c-2.68 2.28-4.04 5.63-3.76 8.32 0.24 2.43 1.21 3.78 3.02 3.72 2.11-0.08 4.98-1.8 6.65-3.05l-0.11-0.22c-1.79 1.19-4.41 2.89-6.5 2.88-1.78-0.02-2.61-1.65-2.69-3.86-0.11-2.92 1.43-5.61 3.39-7.79z" fill="#736962" opacity=".39"/>
  <path d="m55.04 38.02c-3.6 0.75-7.56 4.5-7.67 8.06-0.04 1.5 0.78 2.42 2.03 2.28 2.18-0.26 5.3-2.39 5.99-4.37 0.32-0.93 0.43-1.74 0.36-2.5l0.59 1.42c1.65-2.09 0.95-5.31-1.3-4.89z" fill="#BEB2A9" stroke="#998E86" stroke-width=".2746"/>
  <path d="m50.75 45.82c-0.64-0.52 0.32-1.91 1.59-3 0.95-0.81 2.14-1.01 2.35-0.04 0.17 0.77-0.17 1.69-0.7 2.35" stroke="#958B83" stroke-width=".3196"/>
  <path d="m48.75 37.41c0.07 1.31-1.91 2.32-4.28 1.67-9.14-2.52-19.69-5.8-27.91-8.09-0.61-0.16-0.95-0.22-0.94 0.09 0.02 0.77 0.9 1.6 2.91 2.23 8.3 2.56 17.6 5.34 25.46 6.87 3.13 0.62 5.46-0.97 4.76-2.77z" fill="#C4B8AE" opacity=".55"/>
  <path d="m53.32 20.11c-7.63-2.28-21.06-5.67-26.8-6.46-5.87-0.48-12.92 4.66-12.89 11.92 0.01 2.79 1.15 4.68 3.33 5.35 9.72 3.01 19.58 5.92 27.96 8.27 1.57 0.43 2.86 0.11 3.72-0.95 2.74-1.25 5.41-2.87 7.11-4.38 3.46-4.92 2.37-11.94-2.43-13.75z" fill="url(#paint5_linear_26324_59592)"/>
  <path d="m47.81 18.58c-2.68-0.41-6.22-0.7-8.88-0.82-0.7 0.33-1.46 0.88-1.76 1.78 4.29 0.92 9.3 0.85 10.64-0.96z" fill="#54453E" opacity=".3"/>
  <path d="m53.47 20.31c-5.26 0.21-9.49 4.36-10.86 8.58-0.61 1.89-3.27 1.14-3.45-1.31-0.1-1.53-0.25-3.39-0.56-5.11 0.36 3.54 0.49 6.39 0.7 8.43 0.22 2.41 0.87 4.79 1.66 7.01l3.78 1.25c1.54 0.39 2.9 0.19 3.88-0.84 2.73-1.25 5.45-2.83 7.23-4.34 3.33-5.03 2.39-11.81-2.38-13.67z" fill="#C9C0B8" opacity=".3"/>
  <path d="m53.49 20.57c-6.4 0.13-10.6 5.94-10.68 12.6-0.04 2.94 0.72 5.12 2.27 5.9 1.31 0.47 2.68 0.29 3.6-0.78 2.72-1.2 5.39-2.74 7.15-4.23 3.23-4.98 2.33-11.55-2.34-13.49z" fill="#CFC4BB"/>
  <path d="m52.14 23.6c-3.54 0.07-6.67 4.44-6.7 8.64-0.02 3.09 1.64 5.01 3.76 4.93 2.34-0.3 4.79-1.58 6.39-2.93 0.64-1.25 0.99-2.74 1.06-4.28l-0.71 0.44c-0.05-3.37-1.09-6.84-3.8-6.8z" fill="#B8ADA4"/>
  <path d="m52.31 23.86c-3.46 0.11-6.52 4.45-6.52 8.48 0 2.94 1.73 4.65 3.68 4.61 2.04-0.34 4.1-1.31 5.7-2.5 0.6-1.24 1.06-2.63 1.23-4.09l-0.44 0.02c0.03-3.49-0.78-6.6-3.65-6.52z" fill="#C9BEB4"/>
  <path d="m51.79 27.69c-1.66 0.16-3.07 2.11-3.07 3.93 0 1.59 1 2.58 2.32 2.42 1.64-0.32 3.33-1.66 4.21-3.08l-0.12-0.37c-0.87 1.41-2.61 2.92-4.18 3.09-1.2 0.06-1.85-0.81-1.8-2.07 0.06-1.72 1.5-3.43 2.8-3.43 0.6 0.03 0.87 0.46 0.81 1.07-0.07 0.79-0.67 1.57-1.33 1.87 0.99-0.16 1.67-1.1 1.69-2.07 0.02-0.87-0.52-1.43-1.33-1.36z" fill="#A59A91"/>
  <path d="m35.73 18.58c-5.65 1.01-9.37 8.04-8.91 13.23 0.09 1.04 0.53 2.27 1.6 2.7l4.1 1.24-0.13-0.46c-0.57-1.44-0.81-3.08-0.71-4.88 0.22-4.25 2.28-8.51 4.95-11.22l-0.9-0.61z" fill="#47342B" opacity=".28"/>
  <path d="m35.31 18.26c-5.1 1.16-8.5 8.02-8 13.33 0.11 1.49 0.53 2.71 1.59 3.03l3.67 1.1c-1.25-0.78-1.6-2.83-1.48-4.97 0.23-4.5 2.49-8.85 5.46-11.68l-1.24-0.81z" fill="url(#paint6_linear_26324_59592)"/>
  <path d="m34.72 17.75c-4.38-0.44-9 1.79-10.85 4.61-0.08 0.12 0 0.22 0.14 0.22l1.98 0.05 1.06 1.32c0.08 0.1 0.21 0.09 0.28 0 1.93-2.65 5.11-4.96 8.22-5.52l-0.83-0.68z" fill="#FF7B31"/>
  <path d="m38.15 18.58-2.39-0.07c-0.71 2.47-0.68 6.53 0.19 8.1 0.06 0.12 0.21 0.15 0.31 0.07l1.36-1.16 1.87 0.22c0.12 0.02 0.21-0.07 0.2-0.19-0.24-2.39-0.61-5.23-1.54-6.97z" fill="url(#paint7_linear_26324_59592)"/>
  <path d="m35.31 18.3c-3.37 0.15-6.41 2.74-8.12 5.34l0.32 0.77c1.8-2.58 4.63-4.99 7.97-5.83l-0.17-0.28z" fill="#352116" opacity=".3"/>
  <path d="m35.78 18.65c2.53 0.76 5.71 1.41 7.79 1.36 1.38-0.03 2.61-0.4 3.36-1.05l-0.77-0.4c-3.07 0.25-6.87 0.13-10.26-0.18l-0.12 0.27z" fill="#54433A" opacity=".3"/>
  <path d="m35.78 18.37c3.02 0.88 6.39 1.57 8.21 1.28 1.52-0.24 2.3-1.45 2.25-2.94-0.05-1.45-1.4-2.5-3.55-2.36-2.05 0.14-4.75 1.45-5.59 2.34l-1.32 1.68z" fill="url(#paint9_linear_26324_59592)"/>
  <path d="m36.23 18.51c2.52 0.76 5.38 1.42 7.24 1.28 1.13-0.09 1.44-0.7 1.33-1.35-0.12-0.72-1.59-1.1-3.12-0.93-1.91 0.23-3.79 0.64-5.45 1z" fill="#AA3903"/>
  <path d="m35.85 16.12c-0.6-2.36-3.08-4.6-5.5-4.59-1.46 0.01-3.37 2.03-3.39 3.15-0.03 1.92 4.54 3.31 7.96 3.57l0.93-2.13z" fill="url(#paint8_linear_26324_59592)"/>
  <path d="m27.29 14.43c-0.34 0.37-0.21 1.01 0.54 1.66 1.31 1.14 4.37 1.93 6.93 2.13-2.51-2.04-6.15-4.65-7.47-3.79z" fill="#B43E03"/>
  <path d="m37.59 16.11c-0.59-0.25-1.35-0.36-1.98-0.23-0.96 0.35-1.33 1.28-1.19 2.04 0.27 0.59 1.19 0.87 1.99 0.8 0.02-0.96 0.5-1.93 1.18-2.61z" fill="url(#paint10_linear_26324_59592)"/>
  <path d="m64.62 39.98c-5.37 0.07-10.65 4.62-10.63 8.84 0.01 2.58 1.9 4.07 4.88 4.03 5.11-0.12 12.32-3.99 12.25-8.07-0.04-3.09-3.19-4.83-6.5-4.8z" fill="url(#paint11_linear_26324_59592)"/>
  <path d="m70.98 44.71c0.25 3.75-7.3 8.03-12.37 8.21-1.48 0.02-3.24-0.55-4.12-1.74 0.46 1.31 2.17 2.2 4.18 2.18 5-0.07 12.63-4.02 12.77-7.11 0.03-0.61-0.15-1.12-0.46-1.54z" fill="#161414"/>
  <path d="m60.61 42.46c-2.39 0.81-4.75 3.06-4.87 4.85-0.06 0.9 0.78 1.23 1.79 1.13 0.89-0.09 1.48-0.58 1.83-1.27 0.34-0.67 1.42-1.34 2.07-2.14 1.03-1.4 0.44-2.91-0.82-2.57z" fill="url(#paint12_radial_26324_59592)"/>
</svg>